# xmcd
#
# Track frame offsets:
#	150
#	7560
#	21705
#	30735
#	33140
#	47995
#	56760
#	61620
#	72282
#	85840
#	96955
#	104272
#	115192
#	129937
#	138292
#	149670
#	165882
#
# Disc length: 2465 seconds
#
# Revision: 2
# Processed by: cddbd v1.5.2PL0 Copyright (c) Steve Scherf et al.
# Submitted via: audiograbber 1.83.01
#
DISCID=db099f11
DTITLE=Patsy Cline - Live At The Cimarron Ballroom
DYEAR=1961
DGENRE=Country
TTITLE0=Come On In (live 7-29-1961)
TTITLE1=A Poor Man's Roses (live 7-29-1961)
TTITLE2=Bill Bailey, Won't You Please Come Home (live 7-29-1961)
TTITLE3=Patsy dialog (live 7-29-1961)
TTITLE4=I Fall To Pieces (live 7-29-1961)
TTITLE5=Lovesick Blues (live 7-29-1961)
TTITLE6=Patsy dialog (live 7-29-1961)
TTITLE7=Shake Rattle and Roll (live 7-29-1961)
TTITLE8=There He Goes (live 7-29-1961)
TTITLE9=San Antonio Rose (intermission) (live 7-29-1961)
TTITLE10=Patsy talks about car accident (live 7-29-1961)
TTITLE11=Stupid Cupid (live 7-29-1961)
TTITLE12=I Fall To Pieces (live 7-29-1961)
TTITLE13=If I Could See The World Through The Eyes Of A Child (live 7-29-1961)
TTITLE14=Walking After Midnight (live 7-29-1961)
TTITLE15=Foolin' 'Round (live 7-29-1961)
TTITLE16=When My Dreamboat Comes Home (live 7-29-1961)
EXTD=Recorded live in Tulsa, Oklahoma, this cd was released  on July 29th, 36 y
EXTD=ears to the day that it was recorded.
EXTT0=
EXTT1=
EXTT2=
EXTT3=
EXTT4=
EXTT5=
EXTT6=
EXTT7=
EXTT8=
EXTT9=
EXTT10=
EXTT11=
EXTT12=
EXTT13=
EXTT14=
EXTT15=
EXTT16=
PLAYORDER=
